<svg width="70" height="26" viewBox="0 0 70 26" fill="none" xmlns="http://www.w3.org/2000/svg">
<path fill-rule="evenodd" clip-rule="evenodd" d="M22.6284 25.8356L26.8618 24.7067C26.9486 24.6836 27.0204 24.6228 27.0576 24.541L30.1663 17.7017C30.2511 17.5153 30.4935 17.4667 30.6436 17.606L34.8101 21.4749C34.9252 21.5818 35.1032 21.5818 35.2183 21.4749L39.3964 17.5952C39.543 17.4591 39.7794 17.5019 39.8689 17.6809L43.3045 24.5521C43.3421 24.6273 43.4095 24.6833 43.4904 24.7064L47.3878 25.82C47.6381 25.8915 47.8545 25.6321 47.7393 25.3987L35.2832 0.1672C35.1731 -0.0557333 34.8552 -0.0557332 34.7452 0.1672L22.2821 25.413C22.168 25.6441 22.3793 25.9021 22.6284 25.8356ZM34.5974 8.73126L32.0336 13.9214C31.9571 14.0764 31.9887 14.2629 32.112 14.384L34.784 17.0075C34.9454 17.166 35.2059 17.1592 35.3589 16.9926L37.7562 14.3809C37.8669 14.2603 37.893 14.0843 37.8219 13.9368L35.3164 8.73484C35.1718 8.43461 34.745 8.43248 34.5974 8.73126Z" fill="#333333"/>
<path fill-rule="evenodd" clip-rule="evenodd" d="M39.7913 5.86604L44.9745 0.682785C45.012 0.645278 45.0629 0.624207 45.1159 0.624207H69.7122C69.8903 0.624207 69.9796 0.839305 69.8539 0.965394L66.9239 3.90511C66.8864 3.94276 66.8354 3.96392 66.7822 3.96392H46.5924C46.5396 3.96392 46.4889 3.98482 46.4514 4.02206L41.4755 8.9671C41.3788 9.06326 41.2163 9.03646 41.1555 8.91433L39.7536 6.09655C39.7153 6.0196 39.7305 5.92681 39.7913 5.86604ZM47.0096 5.1898L41.924 10.2777C41.864 10.3377 41.8484 10.4291 41.8851 10.5056L43.3578 13.5743C43.3878 13.6367 43.4705 13.6506 43.5191 13.6013L51.2118 5.81227C51.4614 5.55957 51.2824 5.13119 50.9272 5.13119H47.1511C47.098 5.13119 47.0471 5.15228 47.0096 5.1898ZM50.7098 8.07756L53.5404 5.24828C53.6155 5.17331 53.7172 5.13119 53.8232 5.13119H65.2312C65.4097 5.13119 65.4988 5.34737 65.372 5.47314L62.4245 8.39876C62.3861 8.43683 62.334 8.45776 62.28 8.45678L50.7787 8.24827C50.6905 8.24667 50.6474 8.13993 50.7098 8.07756ZM49 9.79134L46.4471 12.4088C46.3235 12.5355 46.4133 12.7485 46.5903 12.7485H57.9288C57.9811 12.7485 58.0313 12.728 58.0687 12.6914L60.8421 9.97668C60.9704 9.8511 60.8811 9.63317 60.7016 9.63375L49.285 9.67063C49.1776 9.67097 49.0749 9.71447 49 9.79134Z" fill="#B40D16"/>
<path fill-rule="evenodd" clip-rule="evenodd" d="M30.2087 5.86604L25.0255 0.682785C24.988 0.645278 24.9371 0.624207 24.8841 0.624207H0.28776C0.109737 0.624207 0.0204334 0.839305 0.146105 0.965394L3.07611 3.90511C3.11363 3.94276 3.1646 3.96392 3.21776 3.96392H23.4076C23.4604 3.96392 23.5111 3.98482 23.5486 4.02206L28.5245 8.9671C28.6212 9.06326 28.7837 9.03646 28.8445 8.91433L30.2464 6.09655C30.2847 6.0196 30.2695 5.92681 30.2087 5.86604ZM22.9904 5.1898L28.076 10.2777C28.136 10.3377 28.1516 10.4291 28.1149 10.5056L26.6422 13.5743C26.6122 13.6367 26.5295 13.6506 26.4809 13.6013L18.7882 5.81227C18.5386 5.55957 18.7176 5.13119 19.0728 5.13119H22.8489C22.902 5.13119 22.9529 5.15228 22.9904 5.1898ZM19.2902 8.07756L16.4596 5.24828C16.3845 5.17331 16.2828 5.13119 16.1768 5.13119H4.76885C4.59031 5.13119 4.50124 5.34737 4.62796 5.47314L7.57552 8.39876C7.61387 8.43683 7.666 8.45776 7.72003 8.45678L19.2213 8.24827C19.3095 8.24667 19.3526 8.13993 19.2902 8.07756ZM21 9.79134L23.5529 12.4088C23.6765 12.5355 23.5867 12.7485 23.4097 12.7485H12.0712C12.0189 12.7485 11.9687 12.728 11.9313 12.6914L9.15787 9.97668C9.02958 9.8511 9.11889 9.63317 9.29842 9.63375L20.715 9.67063C20.8224 9.67097 20.9251 9.71447 21 9.79134Z" fill="#B40D16"/>
</svg>
