<svg width="16" height="17" viewBox="0 0 16 17" fill="none" xmlns="http://www.w3.org/2000/svg">
<path d="M8.4348 1.31017C8.41323 1.26983 8.38171 1.23292 8.34218 1.20128C8.25731 1.13234 8.13757 1.09415 8.01305 1.0963C7.88078 1.09386 7.7529 1.13175 7.6581 1.20128C7.61676 1.23185 7.58512 1.26915 7.56548 1.31017C6.74758 2.07236 0.693296 7.92507 2.25675 11.9618C2.50334 12.5697 2.92171 13.1297 3.48311 13.6031C4.0445 14.0766 4.73529 14.452 5.50776 14.7034C6.25619 14.9599 7.06778 15.0936 7.88942 15.0962H8.01807H8.01794C8.97718 15.0766 9.92011 14.9043 10.7854 14.5906C11.4914 14.3302 12.1185 13.9622 12.6276 13.5098C13.1365 13.0574 13.5164 12.5304 13.7432 11.9618C15.3068 7.92532 9.25257 2.07641 8.43447 1.31017H8.4348ZM9.92646 10.9623C9.8124 11.331 9.53467 11.659 9.13954 11.8917C8.81868 12.0916 8.41578 12.2008 8.00012 12.2008C7.58445 12.2008 7.18155 12.0916 6.8607 11.8917C6.46583 11.6582 6.18667 11.3307 6.06862 10.9623C5.56962 9.4418 7.21568 7.18633 7.99754 6.22585C8.78459 7.18628 10.4306 9.43805 9.92646 10.9623Z" fill="#E7E7E7"/>
</svg>
