<svg width="40" height="41" viewBox="0 0 40 41" fill="none" xmlns="http://www.w3.org/2000/svg">
<path d="M31.7364 7.52888C31.7364 7.15511 31.4334 6.85213 31.0596 6.85213H19.3287C18.7057 6.85213 18.2007 6.34712 18.2007 5.72416V5.72416C18.2007 5.1012 17.6957 4.59619 17.0728 4.59619H6.7627C5.10584 4.59619 3.7627 5.93934 3.7627 7.59619V26.2532C3.7627 27.25 4.57073 28.058 5.56749 28.058V28.058C6.56425 28.058 7.37228 27.25 7.37228 26.2532V11.2057C7.37228 9.54884 8.71543 8.2057 10.3723 8.2057H31.0596C31.4334 8.2057 31.7364 7.90267 31.7364 7.52888V7.52888Z" fill="#B40D16"/>
<path d="M36.0225 9.10803H11.2744C9.61756 9.10803 8.27441 10.4512 8.27441 12.108V25.0579C8.27441 26.7148 9.61756 28.058 11.2744 28.058H33.2481C34.905 28.058 36.2481 26.7148 36.2481 25.058V9.33363C36.2481 9.20903 36.1471 9.10803 36.0225 9.10803V9.10803Z" fill="#B40D16"/>
<path d="M24.066 32.3442C24.066 31.7213 23.5609 31.2163 22.9379 31.2163H21.5846C20.9617 31.2163 20.4566 30.7113 20.4566 30.0883V29.4116C20.4566 29.1624 20.2546 28.9603 20.0053 28.9603V28.9603C19.7561 28.9603 19.554 29.1624 19.554 29.4116V30.0883C19.554 30.7113 19.049 31.2163 18.4261 31.2163H17.0727C16.4498 31.2163 15.9448 31.7213 15.9448 32.3442V32.3442C15.9448 32.9672 15.4398 33.4722 14.8168 33.4722H9.17673C8.92757 33.4722 8.72559 33.6742 8.72559 33.9234V33.9234C8.72559 34.1725 8.92757 34.3745 9.17673 34.3745H14.8168C15.4398 34.3745 15.9448 34.8795 15.9448 35.5025V35.5025C15.9448 36.1254 16.4498 36.6305 17.0727 36.6305H22.9382C23.5611 36.6305 24.0662 36.1254 24.0662 35.5025V35.5025C24.0662 34.8795 24.5712 34.3745 25.1941 34.3745H30.8342C31.0833 34.3745 31.2853 34.1725 31.2853 33.9234V33.9234C31.2853 33.6742 31.0833 33.4722 30.8342 33.4722H25.1941C24.5711 33.4722 24.0661 32.9672 24.066 32.3442V32.3442Z" fill="#B40D16"/>
</svg>
