<svg width="40" height="41" viewBox="0 0 40 41" fill="none" xmlns="http://www.w3.org/2000/svg">
<path d="M7.40022 5.172L4.87695 7.69921H7.40022V5.172Z" fill="#B40D16"/>
<path d="M25.2062 6.28762V6.28762C25.2062 5.19794 24.3228 4.31458 23.2331 4.31458H10.6133C9.5087 4.31458 8.61327 5.21001 8.61327 6.31457V8.30191C8.61327 8.63697 8.34167 8.90831 8.00687 8.90831H6.01953C4.91496 8.90831 4.01953 9.80374 4.01953 10.9083V30.5211C4.01953 31.6256 4.91496 32.5211 6.01953 32.5211H23.2061C24.3107 32.5211 25.2061 31.6256 25.2061 30.5211L25.2062 6.28762ZM22.1063 26.1304H7.46355C7.12849 26.1304 6.85715 25.8588 6.85715 25.524C6.85715 25.1889 7.12849 24.9173 7.46355 24.9173H22.1063C22.4413 24.9173 22.7129 25.1889 22.7129 25.524C22.7129 25.8588 22.4413 26.1304 22.1063 26.1304ZM22.1063 22.6822C22.1063 22.6823 22.1062 22.6824 22.1061 22.6824L7.46355 22.6821C7.12849 22.6821 6.85715 22.4108 6.85715 22.0757C6.85715 21.7406 7.12849 21.4693 7.46355 21.4693H22.1063C22.4413 21.4693 22.7129 21.7406 22.7129 22.0757C22.7129 22.4107 22.4414 22.682 22.1064 22.6821C22.1063 22.6821 22.1063 22.6822 22.1063 22.6822V22.6822ZM22.1063 19.2378C22.1063 19.2379 22.1062 19.238 22.1061 19.238L7.46355 19.2377C7.12849 19.2377 6.85715 18.9664 6.85715 18.6313C6.85715 18.2962 7.12849 18.0246 7.46355 18.0246H22.1063C22.4413 18.0246 22.7129 18.2962 22.7129 18.6313C22.7129 18.9663 22.4414 19.2376 22.1064 19.2377C22.1063 19.2377 22.1063 19.2378 22.1063 19.2378V19.2378ZM22.1063 15.7898C22.1063 15.7899 22.1062 15.7899 22.1061 15.7899L7.46355 15.7897C7.12849 15.7897 6.85715 15.5181 6.85715 15.183C6.85715 14.8482 7.12849 14.5766 7.46355 14.5766H22.1063C22.4413 14.5766 22.7129 14.8482 22.7129 15.183C22.7129 15.518 22.4414 15.7896 22.1064 15.7897C22.1063 15.7897 22.1063 15.7897 22.1063 15.7898V15.7898ZM22.1063 12.3454C22.1063 12.3455 22.1062 12.3455 22.1061 12.3455L7.46355 12.3453C7.12849 12.3453 6.85715 12.0737 6.85715 11.7386C6.85715 11.4038 7.12849 11.1322 7.46355 11.1322H22.1063C22.4413 11.1322 22.7129 11.4038 22.7129 11.7386C22.7129 12.0736 22.4414 12.3452 22.1064 12.3453C22.1063 12.3453 22.1063 12.3453 22.1063 12.3454V12.3454Z" fill="#B40D16"/>
<path d="M28.9385 7.75493C27.6679 7.41332 26.4193 8.3706 26.4193 9.68634V12.6211C26.4193 13.5269 27.028 14.3196 27.9031 14.5533L31.2415 15.445C31.5322 15.5265 31.7189 15.8091 31.6794 16.1086C31.6397 16.4079 31.3862 16.6325 31.0843 16.6356C31.031 16.6354 30.978 16.6281 30.9271 16.6132L27.8425 15.788C27.1319 15.5979 26.4344 16.1333 26.4344 16.8688V16.8688C26.4344 17.3759 26.7754 17.8196 27.2654 17.9501L30.3429 18.7695C30.6408 18.8452 30.8352 19.1319 30.7949 19.4365C30.755 19.7412 30.493 19.9679 30.1857 19.964C30.1326 19.9637 30.0796 19.9562 30.0284 19.9415L27.8144 19.3536C27.1099 19.1665 26.4193 19.6976 26.4193 20.4265V20.4265C26.4193 20.9271 26.7544 21.3658 27.2373 21.4975L29.4518 22.1015C29.7433 22.1832 29.93 22.4671 29.8895 22.7669C29.8488 23.0667 29.5936 23.2908 29.2909 23.2921C29.2377 23.2921 29.1849 23.2845 29.1337 23.2696L27.832 22.9106C27.1213 22.7146 26.4192 23.2492 26.4192 23.9864V23.9864C26.4192 24.4895 26.7559 24.9304 27.2412 25.0629L28.5571 25.4224C28.8485 25.5041 29.0353 25.788 28.9945 26.0878C28.954 26.3876 28.6986 26.6117 28.3962 26.613C28.3456 26.6135 28.2952 26.6072 28.2463 26.5944L27.8364 26.4831C27.1262 26.2902 26.4268 26.825 26.4268 27.5609V28.1984C26.4268 28.3278 26.5138 28.4411 26.6388 28.4746L27.6698 28.751C27.6698 28.751 27.6699 28.7509 27.6698 28.7509V28.7509C27.6698 28.7509 27.6698 28.7508 27.6699 28.7508C28.0048 28.7984 28.2377 29.1086 28.1902 29.4433C28.1427 29.7784 27.8327 30.0113 27.4976 29.9638C27.4433 29.9638 27.389 29.9562 27.3368 29.9414V29.9414C26.8708 29.8149 26.412 30.1658 26.412 30.6486V33.1423C26.4115 33.4539 26.1751 33.7145 25.8654 33.7451V33.7451C24.4854 33.7451 24.2262 35.7077 25.5589 36.066L27.3091 36.5364C28.0666 36.74 28.8457 36.2909 29.0491 35.5334L35.4814 11.5845C35.7679 10.5179 35.1356 9.42099 34.0691 9.13426L28.9385 7.75493Z" fill="#B40D16"/>
</svg>
