<svg width="24" height="25" viewBox="0 0 24 25" fill="none" xmlns="http://www.w3.org/2000/svg">
<path d="M21 8.5773V17.9349C21 19.4058 19.8646 20.5962 18.4615 20.5962L5.53854 20.596C4.13551 20.596 3 19.4058 3 17.9348V8.57713L9.02788 14.1317C9.86791 14.8671 10.9201 15.2736 12.0002 15.2736C13.0895 15.2736 14.1417 14.8574 14.9911 14.1027L21 8.5773ZM11.9999 13.822C12.7568 13.822 13.4954 13.5317 14.0769 13.0091L20.6677 6.95104C20.2339 6.13808 19.4123 5.59619 18.4615 5.59619L5.53822 5.59635C4.58738 5.59635 3.76586 6.13824 3.33207 6.9512L9.9229 13.0188C10.5044 13.5317 11.2429 13.822 11.9998 13.822L11.9999 13.822Z" fill="#B40D16"/>
</svg>
