<svg width="18" height="19" viewBox="0 0 18 19" fill="none" xmlns="http://www.w3.org/2000/svg">
<path d="M6.63583 12.1432C8.27299 13.7842 10.2653 15.0482 11.8914 15.0482C12.6184 15.0482 13.2566 14.7931 13.7672 14.2277C14.0669 13.895 14.25 13.5125 14.25 13.13C14.25 12.8362 14.1335 12.5479 13.8504 12.3483L12.1467 11.1398C11.8747 10.9513 11.6527 10.8626 11.453 10.8626C11.1921 10.8626 10.959 11.0067 10.7038 11.2617L10.3042 11.6609C10.2376 11.7219 10.1599 11.7496 10.0877 11.7496C9.99894 11.7496 9.9157 11.7163 9.8602 11.6831C9.51057 11.4946 8.9112 10.9845 8.35624 10.4302C7.80127 9.87577 7.28515 9.28258 7.10201 8.92778C7.06871 8.86679 7.04096 8.78918 7.04096 8.70048C7.04096 8.63395 7.06316 8.55634 7.12421 8.48981L7.52378 8.08512C7.77352 7.82456 7.92336 7.59726 7.92336 7.3367C7.92336 7.13158 7.83457 6.90983 7.64588 6.64372L6.4416 4.9584C6.23626 4.67012 5.94767 4.54816 5.63134 4.54816C5.25396 4.54816 4.87659 4.71447 4.54915 5.03047C3.99419 5.55159 3.75 6.20022 3.75 6.91537C3.75 8.53971 4.99868 10.5078 6.63583 12.1432Z" fill="#B40D16"/>
</svg>
