<svg width="40" height="41" viewBox="0 0 40 41" fill="none" xmlns="http://www.w3.org/2000/svg">
<path d="M20 5.59619C11.7297 5.59619 5 12.3259 5 20.5962C5 28.8665 11.7297 35.5962 20 35.5962C28.2703 35.5962 35 28.8665 35 20.5962C35 12.3259 28.2703 5.59619 20 5.59619ZM25.78 25.2162C25.58 25.4662 25.29 25.5961 25.0001 25.5961C24.78 25.5961 24.5602 25.526 24.38 25.376L19.38 21.376C19.14 21.1861 19.0001 20.8961 19.0001 20.5961V15.5961C19.0001 15.0461 19.4501 14.5961 20.0001 14.5961C20.5501 14.5961 21.0001 15.0461 21.0001 15.5961V20.1162L25.6202 23.8162C26.0602 24.1562 26.1303 24.7864 25.7803 25.2162L25.78 25.2162Z" fill="#B40D16"/>
</svg>
