<svg width="183" height="161" viewBox="0 0 183 161" fill="none" xmlns="http://www.w3.org/2000/svg">
<path d="M87.5 65.3333V38.5833H122.5V65.3333H140V38.5833C139.995 33.8551 138.15 29.3219 134.869 25.9785C131.588 22.6351 127.14 20.7547 122.5 20.75H87.5C82.8601 20.7547 78.4116 22.6351 75.1307 25.9785C71.8499 29.3219 70.0046 33.8551 70 38.5833V65.3333H87.5Z" fill="url(#paint0_linear_201_8263)"/>
<path d="M87.5 65.3333V38.5833H122.5V65.3333H140V38.5833C139.995 33.8551 138.15 29.3219 134.869 25.9785C131.588 22.6351 127.14 20.7547 122.5 20.75H87.5C82.8601 20.7547 78.4116 22.6351 75.1307 25.9785C71.8499 29.3219 70.0046 33.8551 70 38.5833V65.3333H87.5Z" fill="url(#paint1_linear_201_8263)"/>
<path opacity="0.25" d="M78.75 127.75C76.4294 127.75 74.2038 126.811 72.5628 125.138C70.9219 123.466 70 121.198 70 118.833V101C70 98.6352 70.9219 96.3672 72.5628 94.695C74.2038 93.0228 76.4294 92.0834 78.75 92.0834C81.0706 92.0834 83.2962 93.0228 84.9372 94.695C86.5781 96.3672 87.5 98.6352 87.5 101V118.833C87.5 121.198 86.5781 123.466 84.9372 125.138C83.2962 126.811 81.0706 127.75 78.75 127.75ZM131.25 127.75C128.929 127.75 126.704 126.811 125.063 125.138C123.422 123.466 122.5 121.198 122.5 118.833V101C122.5 98.6352 123.422 96.3672 125.063 94.695C126.704 93.0228 128.929 92.0834 131.25 92.0834C133.571 92.0834 135.796 93.0228 137.437 94.695C139.078 96.3672 140 98.6352 140 101V118.833C140 121.198 139.078 123.466 137.437 125.138C135.796 126.811 133.571 127.75 131.25 127.75Z" fill="url(#paint2_linear_201_8263)"/>
<path d="M175 109.917H140V127.75C140 130.115 139.078 132.383 137.437 134.055C135.796 135.727 133.571 136.667 131.25 136.667C128.929 136.667 126.704 135.727 125.063 134.055C123.422 132.383 122.5 130.115 122.5 127.75V109.917H87.5V127.75C87.5 130.115 86.5781 132.383 84.9372 134.055C83.2962 135.727 81.0706 136.667 78.75 136.667C76.4294 136.667 74.2038 135.727 72.5628 134.055C70.9219 132.383 70 130.115 70 127.75V109.917H35C30.3587 109.917 25.9075 108.038 22.6256 104.693C19.3437 101.349 17.5 96.8131 17.5 92.0834V163.417C17.5 168.146 19.3437 172.682 22.6256 176.027C25.9075 179.371 30.3587 181.25 35 181.25H175C179.641 181.25 184.092 179.371 187.374 176.027C190.656 172.682 192.5 168.146 192.5 163.417V92.0834C192.5 96.8131 190.656 101.349 187.374 104.693C184.092 108.038 179.641 109.917 175 109.917Z" fill="url(#paint3_linear_201_8263)"/>
<path d="M175 109.917H140V127.75C140 130.115 139.078 132.383 137.437 134.055C135.796 135.727 133.571 136.667 131.25 136.667C128.929 136.667 126.704 135.727 125.063 134.055C123.422 132.383 122.5 130.115 122.5 127.75V109.917H87.5V127.75C87.5 130.115 86.5781 132.383 84.9372 134.055C83.2962 135.727 81.0706 136.667 78.75 136.667C76.4294 136.667 74.2038 135.727 72.5628 134.055C70.9219 132.383 70 130.115 70 127.75V109.917H35C30.3587 109.917 25.9075 108.038 22.6256 104.693C19.3437 101.349 17.5 96.8131 17.5 92.0834V163.417C17.5 168.146 19.3437 172.682 22.6256 176.027C25.9075 179.371 30.3587 181.25 35 181.25H175C179.641 181.25 184.092 179.371 187.374 176.027C190.656 172.682 192.5 168.146 192.5 163.417V92.0834C192.5 96.8131 190.656 101.349 187.374 104.693C184.092 108.038 179.641 109.917 175 109.917Z" fill="url(#paint4_linear_201_8263)"/>
<g filter="url(#filter0_bii_201_8263)">
<path d="M175 47.5H35C30.3587 47.5 25.9075 49.3789 22.6256 52.7233C19.3437 56.0677 17.5 60.6036 17.5 65.3333V101C17.5 105.73 19.3437 110.266 22.6256 113.61C25.9075 116.954 30.3587 118.833 35 118.833H70V109.917C70 107.552 70.9219 105.284 72.5628 103.612C74.2038 101.939 76.4294 101 78.75 101C81.0706 101 83.2962 101.939 84.9372 103.612C86.5781 105.284 87.5 107.552 87.5 109.917V118.833H122.5V109.917C122.5 107.552 123.422 105.284 125.063 103.612C126.704 101.939 128.929 101 131.25 101C133.571 101 135.796 101.939 137.437 103.612C139.078 105.284 140 107.552 140 109.917V118.833H175C179.641 118.833 184.092 116.954 187.374 113.61C190.656 110.266 192.5 105.73 192.5 101V65.3333C192.5 60.6036 190.656 56.0677 187.374 52.7233C184.092 49.3789 179.641 47.5 175 47.5Z" fill="white" fill-opacity="0.07"/>
</g>
<defs>
<filter id="filter0_bii_201_8263" x="-2.5" y="27.5" width="215" height="111.333" filterUnits="userSpaceOnUse" color-interpolation-filters="sRGB">
<feFlood flood-opacity="0" result="BackgroundImageFix"/>
<feGaussianBlur in="BackgroundImageFix" stdDeviation="10"/>
<feComposite in2="SourceAlpha" operator="in" result="effect1_backgroundBlur_201_8263"/>
<feBlend mode="normal" in="SourceGraphic" in2="effect1_backgroundBlur_201_8263" result="shape"/>
<feColorMatrix in="SourceAlpha" type="matrix" values="0 0 0 0 0 0 0 0 0 0 0 0 0 0 0 0 0 0 127 0" result="hardAlpha"/>
<feOffset dy="-4"/>
<feGaussianBlur stdDeviation="2"/>
<feComposite in2="hardAlpha" operator="arithmetic" k2="-1" k3="1"/>
<feColorMatrix type="matrix" values="0 0 0 0 1 0 0 0 0 1 0 0 0 0 1 0 0 0 0.05 0"/>
<feBlend mode="normal" in2="shape" result="effect2_innerShadow_201_8263"/>
<feColorMatrix in="SourceAlpha" type="matrix" values="0 0 0 0 0 0 0 0 0 0 0 0 0 0 0 0 0 0 127 0" result="hardAlpha"/>
<feOffset dx="-4" dy="-4"/>
<feGaussianBlur stdDeviation="2"/>
<feComposite in2="hardAlpha" operator="arithmetic" k2="-1" k3="1"/>
<feColorMatrix type="matrix" values="0 0 0 0 1 0 0 0 0 1 0 0 0 0 1 0 0 0 0.05 0"/>
<feBlend mode="normal" in2="effect2_innerShadow_201_8263" result="effect3_innerShadow_201_8263"/>
</filter>
<linearGradient id="paint0_linear_201_8263" x1="105" y1="20.75" x2="105" y2="72.4374" gradientUnits="userSpaceOnUse">
<stop stop-color="#C20C16"/>
<stop offset="1" stop-color="#DB1021"/>
</linearGradient>
<linearGradient id="paint1_linear_201_8263" x1="105" y1="-14" x2="105" y2="65" gradientUnits="userSpaceOnUse">
<stop offset="0.435294" stop-color="#C6111B"/>
<stop offset="0.980194" stop-color="#89000B"/>
</linearGradient>
<linearGradient id="paint2_linear_201_8263" x1="105" y1="92.0834" x2="105" y2="127.75" gradientUnits="userSpaceOnUse">
<stop offset="0.451042" stop-color="#B40D16"/>
<stop offset="1" stop-color="#FF1225"/>
</linearGradient>
<linearGradient id="paint3_linear_201_8263" x1="105" y1="92.0834" x2="105" y2="181.25" gradientUnits="userSpaceOnUse">
<stop offset="0.451042" stop-color="#B40D16"/>
<stop offset="1" stop-color="#FF2234"/>
</linearGradient>
<linearGradient id="paint4_linear_201_8263" x1="105" y1="92.0834" x2="105" y2="181.25" gradientUnits="userSpaceOnUse">
<stop offset="0.249591" stop-color="#C6111B"/>
<stop offset="0.841603" stop-color="#89000B"/>
</linearGradient>
</defs>
</svg>
