<svg width="24" height="25" viewBox="0 0 24 25" fill="none" xmlns="http://www.w3.org/2000/svg">
<path d="M8.84778 15.7229C11.0307 17.9109 13.6871 19.5962 15.8552 19.5962C16.8245 19.5962 17.6755 19.2562 18.3562 18.5022C18.7558 18.0587 19 17.5487 19 17.0386C19 16.6469 18.8446 16.2625 18.4672 15.9964L16.1956 14.385C15.833 14.1337 15.537 14.0154 15.2706 14.0154C14.9228 14.0154 14.6121 14.2076 14.2717 14.5476L13.7389 15.0798C13.6501 15.1611 13.5465 15.1981 13.4503 15.1981C13.3319 15.1981 13.2209 15.1537 13.1469 15.1094C12.6808 14.8581 11.8816 14.178 11.1416 13.4389C10.4017 12.6997 9.71353 11.9088 9.46934 11.4357C9.42495 11.3544 9.38795 11.2509 9.38795 11.1326C9.38795 11.0439 9.41755 10.9404 9.49894 10.8517L10.0317 10.3121C10.3647 9.96472 10.5645 9.66166 10.5645 9.31425C10.5645 9.04075 10.4461 8.74508 10.1945 8.39028L8.58879 6.14318C8.31501 5.75881 7.93023 5.59619 7.50846 5.59619C7.00529 5.59619 6.50211 5.81794 6.06554 6.23927C5.32558 6.9341 5 7.79894 5 8.75247C5 10.9183 6.6649 13.5423 8.84778 15.7229Z" fill="#0E0E0F"/>
</svg>
