<svg width="282" height="252" viewBox="0 0 282 252" fill="none" xmlns="http://www.w3.org/2000/svg">
<g filter="url(#filter0_b_450_2423)">
<path fill-rule="evenodd" clip-rule="evenodd" d="M144.897 -37.3272C142.937 -53.7799 119.063 -53.7799 117.103 -37.3272C115.499 -23.876 97.6281 -20.3209 90.9999 -32.1354C82.8927 -46.5854 60.8361 -37.4493 65.3212 -21.4985C68.9878 -8.45758 53.8371 1.66569 43.1914 -6.71253C30.1716 -16.9602 13.2908 -0.0787991 23.5378 12.9416C31.916 23.5862 21.7922 38.7375 8.75131 35.0703C-7.19894 30.5853 -16.3345 52.6424 -1.88441 60.7497C9.92948 67.3778 6.37499 85.2491 -7.07679 86.8526C-23.5301 88.8125 -23.5301 112.687 -7.07679 114.647C6.37499 116.25 9.92948 134.122 -1.88441 140.75C-16.3345 148.857 -7.19894 170.914 8.75131 166.429C21.7922 162.762 31.916 177.913 23.5378 188.558C13.2908 201.578 30.1716 218.459 43.1914 208.212C53.8371 199.834 68.9878 209.958 65.3212 222.998C60.8361 238.949 82.8927 248.084 90.9999 233.634C97.6281 221.82 115.499 225.375 117.103 238.827C119.063 255.28 142.937 255.28 144.897 238.827C146.5 225.375 164.372 221.82 171 233.634C179.107 248.084 201.164 238.949 196.679 222.998C193.012 209.958 208.163 199.834 218.808 208.212C231.828 218.459 248.709 201.578 238.462 188.558C230.084 177.913 240.208 162.762 253.249 166.429C269.199 170.914 278.334 148.857 263.884 140.75C252.07 134.122 255.625 116.25 269.077 114.647C285.53 112.687 285.53 88.8125 269.077 86.8526C255.625 85.2491 252.07 67.3778 263.884 60.7497C278.334 52.6424 269.199 30.5853 253.249 35.0703C240.208 38.7375 230.084 23.5862 238.462 12.9416C248.709 -0.0787991 231.828 -16.9602 218.808 -6.71253C208.163 1.66569 193.012 -8.45758 196.679 -21.4985C201.164 -37.4493 179.107 -46.5854 171 -32.1354C164.372 -20.3209 146.5 -23.876 144.897 -37.3272ZM112.807 64.363C112.807 74.4113 104.662 82.5564 94.6133 82.5564C84.565 82.5564 76.4199 74.4113 76.4199 64.363C76.4199 54.3147 84.565 46.1697 94.6133 46.1697C104.662 46.1697 112.807 54.3147 112.807 64.363ZM167.387 173.523C177.435 173.523 185.58 165.378 185.58 155.33C185.58 145.281 177.435 137.136 167.387 137.136C157.338 137.136 149.193 145.281 149.193 155.33C149.193 165.378 157.338 173.523 167.387 173.523ZM96.5699 165.371C97.7791 166.128 99.1383 166.581 100.499 166.581C102.614 166.581 104.729 165.522 106.088 163.71L180.576 56.8898C182.691 53.7162 181.935 49.4865 178.914 47.3711C175.741 45.2558 171.511 46.0109 169.395 49.0324L94.9086 155.853C92.7933 159.026 93.5484 163.256 96.5699 165.371Z" fill="white" fill-opacity="0.1"/>
</g>
<defs>
<filter id="filter0_b_450_2423" x="-47.4167" y="-77.6667" width="356.833" height="356.833" filterUnits="userSpaceOnUse" color-interpolation-filters="sRGB">
<feFlood flood-opacity="0" result="BackgroundImageFix"/>
<feGaussianBlur in="BackgroundImageFix" stdDeviation="14"/>
<feComposite in2="SourceAlpha" operator="in" result="effect1_backgroundBlur_450_2423"/>
<feBlend mode="normal" in="SourceGraphic" in2="effect1_backgroundBlur_450_2423" result="shape"/>
</filter>
</defs>
</svg>
