<svg width="40" height="41" viewBox="0 0 40 41" fill="none" xmlns="http://www.w3.org/2000/svg">
<path fill-rule="evenodd" clip-rule="evenodd" d="M11.7292 7.31099C10.6889 7.31099 10.0981 7.2814 9.10388 7.11617C8.4352 7.00544 7.85456 6.85624 7.18302 7.52209C6.89634 7.80594 6.72852 8.24148 6.72852 8.78769V19.9728C6.72852 21.1215 6.83211 22.3207 7.06234 23.2727C7.3498 24.4599 7.50416 24.9141 7.98535 26.0115C8.23215 26.574 8.6214 27.2655 8.95443 27.7834C9.49388 28.6216 9.93286 29.1208 10.5779 29.8551C10.716 30.0122 10.9043 30.1693 11.0607 30.3182C11.3935 30.6351 11.6791 30.9084 12.0453 31.1898C12.137 31.2606 12.1986 31.3143 12.2994 31.3918C12.3947 31.4652 12.4605 31.5155 12.556 31.59C13.002 31.9358 15.8318 33.8347 16.4436 34.2374C16.8307 34.4916 17.1695 34.742 17.5525 34.9906C18.2176 35.4221 19.1906 36.2897 19.9875 36.2897C20.5875 36.2897 20.9473 35.9807 21.3132 35.7432C21.6962 35.4946 22.0385 35.2391 22.4221 34.9905C22.8052 34.742 23.1439 34.4917 23.5311 34.2374L26.2908 32.3614C27.8485 31.3375 29.0942 30.3326 30.2501 28.8589L31.02 27.7834C31.663 26.7881 32.1339 25.795 32.5244 24.6754C32.6872 24.2076 32.7999 23.7499 32.9193 23.2427C33.1495 22.2666 33.2456 21.0715 33.2456 19.8989V8.78766C33.2456 8.25523 33.084 7.82118 32.81 7.54081C32.0271 6.73935 31.1678 7.07521 30.1949 7.21159C28.4954 7.44981 26.2947 7.27102 24.7211 6.78989L23.6842 6.44808C22.972 6.20838 21.6901 5.56815 21.0232 5.10603C19.837 4.2843 19.0528 5.08827 18.1488 5.59752C17.8497 5.76571 17.5752 5.89296 17.2603 6.04339C16.9433 6.1948 16.6302 6.32329 16.293 6.45178C15.103 6.90504 13.3725 7.31119 11.729 7.31119L11.7292 7.31099Z" fill="#B40D16"/>
<path d="M6.73145 37.2581V37.259H6.73047V37.2581H6.73145Z" fill="#B40D16"/>
<path d="M6.7334 37.2581V37.259H6.73242C6.73242 37.2585 6.73267 37.2581 6.7334 37.2581Z" fill="#B40D16"/>
<path d="M6.73438 37.2581V37.259H6.7334V37.2581H6.73438Z" fill="#B40D16"/>
<path d="M6.73536 37.2581V37.259H6.73438V37.2581H6.73536Z" fill="#B40D16"/>
<path d="M6.73633 37.2581V37.259H6.73535V37.2581H6.73633ZM6.73633 37.259V37.2581H6.73535V37.259H6.73633Z" fill="#B40D16"/>
<path d="M6.73829 37.259V37.2581H6.7373V37.259H6.73829ZM6.7373 37.2581H6.73829V37.259H6.7373V37.2581Z" fill="#B40D16"/>
<path d="M6.73828 37.2581L6.73926 37.259H6.73828V37.2581Z" fill="#B40D16"/>
<path d="M6.74122 37.2581V37.259H6.74023V37.2581H6.74122ZM6.74122 37.259V37.2581H6.74023V37.259H6.74122Z" fill="#B40D16"/>
<path d="M6.74219 37.2581V37.259H6.74121V37.2581H6.74219Z" fill="#B40D16"/>
<path d="M6.74317 37.2581V37.259H6.74219V37.2581H6.74317ZM6.74317 37.259V37.2581H6.74219V37.259H6.74317Z" fill="#B40D16"/>
<path d="M6.74609 37.2581H6.74705V37.259H6.74609V37.2581Z" fill="#B40D16"/>
<path d="M6.74805 37.2581V37.259H6.74707C6.74707 37.2585 6.74732 37.2581 6.74805 37.2581Z" fill="#B40D16"/>
<path d="M6.75098 37.2581V37.259H6.75C6.75 37.2585 6.75025 37.2581 6.75098 37.2581Z" fill="#B40D16"/>
<path d="M6.7295 37.2598V37.2607H6.72852V37.2598H6.7295Z" fill="#B40D16"/>
<path d="M6.73145 37.2598H6.73047V37.2607H6.73145V37.2598ZM6.73145 37.2598V37.2607H6.73047V37.2598H6.73145Z" fill="#B40D16"/>
<path d="M6.73241 37.2598H6.73338V37.2607H6.73241V37.2598Z" fill="#B40D16"/>
<path d="M6.73536 37.2598V37.2607H6.73438V37.2598H6.73536Z" fill="#B40D16"/>
<path d="M6.73731 37.2598V37.2607H6.73633V37.2598H6.73731Z" fill="#B40D16"/>
<path d="M6.7373 37.2598H6.73829V37.2607L6.7373 37.2598Z" fill="#B40D16"/>
<path d="M6.74024 37.2598H6.73926V37.2607H6.74024V37.2598ZM6.74024 37.2598V37.2607H6.73926V37.2598H6.74024Z" fill="#B40D16"/>
<path d="M6.74316 37.2598H6.74415V37.2607H6.74316V37.2598Z" fill="#B40D16"/>
<path d="M6.74708 37.2598H6.74609V37.2607H6.74708V37.2598ZM6.74708 37.2598V37.2607H6.74609V37.2598H6.74708Z" fill="#B40D16"/>
<path d="M6.74805 37.2598V37.2607H6.74707V37.2598H6.74805Z" fill="#B40D16"/>
<path d="M6.75098 37.2598V37.2607H6.75V37.2598H6.75098Z" fill="#B40D16"/>
</svg>
