<svg width="40" height="41" viewBox="0 0 40 41" fill="none" xmlns="http://www.w3.org/2000/svg">
<path d="M24.6228 4.59619H16.2355C15.0228 4.59619 14.0461 5.57291 14.0461 6.78555V18.2382L10.6103 18.2384C9.39762 18.2384 8.4209 19.2151 8.4209 20.4278C8.4209 21.6404 9.39762 22.6171 10.6103 22.6171H14.0461V25.615L10.6103 25.6153C9.39762 25.6153 8.4209 26.592 8.4209 27.8046C8.4209 29.0172 9.39762 29.994 10.6103 29.994H14.0461L14.0459 34.4068C14.0459 35.6194 15.0226 36.5961 16.2352 36.5961C17.4479 36.5961 18.4246 35.6194 18.4246 34.4068L18.4248 29.9603H26.2732C27.4859 29.9603 28.4626 28.9836 28.4626 27.771C28.4626 26.5583 27.4859 25.5816 26.2732 25.5816L18.4248 25.5814V22.5835H24.6227C28.4627 22.5835 31.5953 19.451 31.5953 15.6109V11.5691C31.5953 7.72882 28.4626 4.59643 24.6227 4.59643L24.6228 4.59619ZM27.2166 15.6109C27.2166 17.0592 26.0375 18.2047 24.6228 18.2047L18.4249 18.2044V8.97496H24.6228C26.0711 8.97496 27.2166 10.154 27.2166 11.5687V15.6109Z" fill="#B40D16"/>
</svg>
