<svg width="40" height="41" viewBox="0 0 40 41" fill="none" xmlns="http://www.w3.org/2000/svg">
<path fill-rule="evenodd" clip-rule="evenodd" d="M10.5254 4.22949H29.4757C30.8641 4.22949 32.0002 5.36578 32.0002 6.75423V34.4166C32.0002 35.8051 30.8644 36.9414 29.4757 36.9414H10.5254C9.137 36.9414 8.00098 35.8051 8.00098 34.4166V6.75423C8.00098 5.36578 9.13673 4.22949 10.5254 4.22949ZM11.6995 32.1388H23.4999V34.0292H11.6995V32.1388ZM11.6995 27.6188H28.3022V29.5092H11.6995V27.6188ZM15.2532 23.92H24.7478V18.7692C24.7478 17.3221 23.5642 16.1379 22.1171 16.1379H17.8846C16.4375 16.1379 15.2533 17.3221 15.2533 18.7692L15.2532 23.92ZM20.0006 8.21034C21.7981 8.21034 23.2548 9.66757 23.2548 11.4651C23.2548 13.2621 21.7981 14.7193 20.0006 14.7193C18.2031 14.7193 16.7464 13.2621 16.7464 11.4651C16.7464 9.66757 18.2031 8.21034 20.0006 8.21034Z" fill="#B40D16"/>
</svg>
