<svg width="32" height="33" viewBox="0 0 32 33" fill="none" xmlns="http://www.w3.org/2000/svg">
<rect y="0.00305176" width="32" height="32" rx="6" fill="white"/>
<path fill-rule="evenodd" clip-rule="evenodd" d="M20.6667 12.0031C22.2199 12.0031 23.525 10.9408 23.895 9.50309H25.9167C26.3309 9.50309 26.6667 9.16731 26.6667 8.75309C26.6667 8.33888 26.3309 8.00309 25.9167 8.00309H23.9334C23.6245 6.4816 22.2793 5.33643 20.6667 5.33643C19.0541 5.33643 17.7089 6.4816 17.4001 8.00309H6.08337C5.66916 8.00309 5.33337 8.33888 5.33337 8.75309C5.33337 9.16731 5.66916 9.50309 6.08338 9.50309H17.4384C17.8084 10.9408 19.1135 12.0031 20.6667 12.0031ZM5.33337 15.4198C5.33337 15.0055 5.66916 14.6698 6.08337 14.6698H8.06672C8.37557 13.1483 9.72073 12.0031 11.3334 12.0031C12.946 12.0031 14.2912 13.1483 14.6 14.6698H25.9167C26.3309 14.6698 26.6667 15.0055 26.6667 15.4198C26.6667 15.834 26.3309 16.1698 25.9167 16.1698H14.5617C14.1917 17.6074 12.8866 18.6698 11.3334 18.6698C9.78017 18.6698 8.47509 17.6074 8.10506 16.1698H6.08338C5.66916 16.1698 5.33337 15.834 5.33337 15.4198ZM6.08337 21.3364C5.66916 21.3364 5.33337 21.6722 5.33337 22.0864C5.33337 22.5006 5.66916 22.8364 6.08338 22.8364H17.4384C17.8084 24.2741 19.1135 25.3364 20.6667 25.3364C22.2199 25.3364 23.525 24.2741 23.895 22.8364H25.9167C26.3309 22.8364 26.6667 22.5006 26.6667 22.0864C26.6667 21.6722 26.3309 21.3364 25.9167 21.3364H23.9334C23.6245 19.8149 22.2793 18.6698 20.6667 18.6698C19.0541 18.6698 17.7089 19.8149 17.4001 21.3364H6.08337ZM22.4001 8.70305C22.4001 9.64194 21.6389 10.4031 20.7001 10.4031C19.7612 10.4031 19.0001 9.64194 19.0001 8.70305C19.0001 7.76417 19.7612 7.00305 20.7001 7.00305C21.6389 7.00305 22.4001 7.76417 22.4001 8.70305ZM11.364 17.0365C12.3029 17.0365 13.064 16.2754 13.064 15.3365C13.064 14.3976 12.3029 13.6365 11.364 13.6365C10.4251 13.6365 9.664 14.3976 9.664 15.3365C9.664 16.2754 10.4251 17.0365 11.364 17.0365ZM22.3083 21.9893C22.3083 22.9281 21.5472 23.6893 20.6083 23.6893C19.6694 23.6893 18.9083 22.9281 18.9083 21.9893C18.9083 21.0504 19.6694 20.2893 20.6083 20.2893C21.5472 20.2893 22.3083 21.0504 22.3083 21.9893Z" fill="#CC2222"/>
</svg>
