<svg width="16" height="17" viewBox="0 0 16 17" fill="none" xmlns="http://www.w3.org/2000/svg">
<g clip-path="url(#clip0_435_698)">
<path d="M11.6553 1.07437C11.7429 0.745464 11.6066 0.397803 11.3188 0.21617C11.0308 0.0345293 10.6584 0.0612227 10.3993 0.282056L1.27336 8.05974C1.02531 8.2712 0.935326 8.6148 1.04797 8.92054C1.1606 9.22627 1.452 9.42954 1.77779 9.42954H5.60676L3.54454 14.5852C3.41395 14.9115 3.5185 15.2849 3.79962 15.496C4.08074 15.707 4.46848 15.7033 4.74544 15.4869L14.701 7.70922C14.9626 7.50479 15.0657 7.15702 14.9575 6.84309C14.8496 6.52928 14.5541 6.31848 14.2222 6.31848H10.2569L11.6553 1.07437Z" fill="#E7E7E7"/>
</g>
<defs>
<clipPath id="clip0_435_698">
<rect width="16" height="16" fill="white" transform="translate(0 0.0961914)"/>
</clipPath>
</defs>
</svg>
