<svg width="24" height="25" viewBox="0 0 24 25" fill="none" xmlns="http://www.w3.org/2000/svg">
<g clip-path="url(#clip0_467_2710)">
<path d="M12.0002 2.35163C7.03733 2.35163 3 6.28063 3 11.1094C3 11.1615 3 11.2235 3.00284 11.2911C3.00284 11.3207 3.00284 11.3474 3.00417 11.3756C3.03524 12.4177 3.25349 13.4288 3.6506 14.3865V14.4274L3.65194 14.4288V14.44L3.81108 14.7456C3.9041 14.9231 4.0083 15.0991 4.12086 15.2681C4.44616 15.7539 4.92494 16.4018 5.54598 17.196L5.61495 17.2834L5.61628 17.2862C7.38789 19.545 9.90584 22.4842 10.9156 23.6543L11.9773 24.8837L13.0435 23.6585C14.0728 22.4755 16.6612 19.4788 18.4582 17.1934C19.0806 16.402 19.5425 15.7838 19.8651 15.3035C19.9566 15.1682 20.0426 15.0275 20.1214 14.8839L20.1552 14.8191C20.6705 13.7488 20.9523 12.6026 20.9945 11.4126L20.9958 11.3887V11.383C20.9987 11.2998 21 11.2098 21 11.1098C21.0003 6.28074 16.9629 2.35156 12.0002 2.35156L12.0002 2.35163ZM12.0002 15.0061C9.86535 15.0061 8.12746 13.2697 8.12746 11.1334C8.12746 8.99852 9.86517 7.26064 12.0002 7.26064C14.1351 7.26064 15.873 8.99835 15.873 11.1334C15.873 13.2697 14.1351 15.0061 12.0002 15.0061Z" fill="#B40D16"/>
</g>
<defs>
<clipPath id="clip0_467_2710">
<rect width="24" height="24" fill="white" transform="translate(0 0.596191)"/>
</clipPath>
</defs>
</svg>
