<svg width="32" height="32" viewBox="0 0 32 32" fill="none" xmlns="http://www.w3.org/2000/svg">
<path d="M29.6002 10.3067V13.557C29.6002 13.7094 29.5397 13.8556 29.4319 13.9633C29.3242 14.0711 29.178 14.1316 29.0256 14.1316H20.0078V9.73216H29.0285C29.1804 9.73292 29.3258 9.79379 29.4329 9.90146C29.5401 10.0091 29.6002 10.1548 29.6002 10.3067ZM14.5851 14.1316H18.2841V9.73216H14.5851V14.1316ZM3.26904 10.3067V13.557C3.26904 13.7094 3.32958 13.8556 3.43733 13.9633C3.54508 14.0711 3.69122 14.1316 3.84361 14.1316H12.8614V9.73216H3.84361C3.69122 9.73216 3.54508 9.7927 3.43733 9.90045C3.32958 10.0082 3.26904 10.1543 3.26904 10.3067ZM4.45035 29.7695C4.45035 29.9219 4.51088 30.0681 4.61863 30.1758C4.72639 30.2836 4.87253 30.3441 5.02491 30.3441H12.8614V16.0248H4.45035V29.7695ZM14.5851 30.3441H18.2841V16.0248H14.5851V30.3441ZM20.0078 30.3441H27.8443C27.9967 30.3441 28.1428 30.2836 28.2506 30.1758C28.3584 30.0681 28.4189 29.9219 28.4189 29.7695V16.0248H20.0078V30.3441ZM8.47345 4.88628C7.80523 3.81989 7.68112 2.78165 8.13216 2.03816C8.34765 1.71249 8.654 1.45723 9.01321 1.30402C9.37242 1.15082 9.76869 1.10642 10.1529 1.17632C12.8723 1.38948 15.27 4.26231 16.4346 5.90728C17.5993 4.26231 19.9969 1.38948 22.7163 1.17345C23.1008 1.10361 23.4974 1.14834 23.8567 1.30208C24.216 1.45583 24.5221 1.7118 24.7371 2.03816C25.1881 2.78165 25.064 3.81932 24.3958 4.88628C23.2639 6.69386 20.6852 8.38136 17.3171 8.38136C17.0299 8.38136 16.734 8.36585 16.4346 8.33999C16.1353 8.36585 15.8399 8.38136 15.5521 8.38136C12.1828 8.38136 9.60534 6.69386 8.47345 4.88628ZM18.0348 6.62721C18.9911 6.57934 19.9249 6.31943 20.7685 5.8663C21.612 5.41316 22.3443 4.77814 22.9123 4.0072C23.303 3.39988 23.3058 3.00631 23.2633 2.93161C23.1742 2.89435 23.0775 2.87879 22.9812 2.88622C22.9429 2.88622 22.8998 2.88795 22.8519 2.89139C21.0668 3.03274 19.1839 5.0667 18.0348 6.62721ZM9.95698 4.0072C10.5249 4.77814 11.2572 5.41316 12.1008 5.8663C12.9443 6.31943 13.8781 6.57934 14.8345 6.62721C13.6853 5.0667 11.8019 3.03274 10.0173 2.89254C9.97019 2.8891 9.92767 2.88795 9.88918 2.88795C9.79064 2.87927 9.69155 2.89671 9.60189 2.93851C9.5634 3.00631 9.56627 3.40046 9.95698 4.0072Z" fill="#B40D16"/>
</svg>
