<svg width="24" height="24" viewBox="0 0 24 24" fill="none" xmlns="http://www.w3.org/2000/svg">
<path d="M8.84778 15.1267C11.0307 17.3147 13.6871 19 15.8552 19C16.8245 19 17.6755 18.66 18.3562 17.906C18.7558 17.4625 19 16.9525 19 16.4425C19 16.0507 18.8446 15.6663 18.4672 15.4002L16.1956 13.7888C15.833 13.5375 15.537 13.4192 15.2706 13.4192C14.9228 13.4192 14.6121 13.6114 14.2717 13.9514L13.7389 14.4836C13.6501 14.5649 13.5465 14.6019 13.4503 14.6019C13.3319 14.6019 13.2209 14.5576 13.1469 14.5132C12.6808 14.2619 11.8816 13.5818 11.1416 12.8427C10.4017 12.1035 9.71353 11.3126 9.46934 10.8395C9.42495 10.7582 9.38795 10.6547 9.38795 10.5364C9.38795 10.4477 9.41755 10.3442 9.49894 10.2555L10.0317 9.71595C10.3647 9.36853 10.5645 9.06547 10.5645 8.71806C10.5645 8.44456 10.4461 8.14889 10.1945 7.79409L8.58879 5.54699C8.31501 5.16262 7.93023 5 7.50846 5C7.00529 5 6.50211 5.22175 6.06554 5.64308C5.32558 6.33791 5 7.20275 5 8.15628C5 10.3221 6.6649 12.9461 8.84778 15.1267Z" fill="#B40D16"/>
</svg>
