<svg width="40" height="41" viewBox="0 0 40 41" fill="none" xmlns="http://www.w3.org/2000/svg">
<path d="M39.8953 19.9891L38.596 16.4038L39.4929 13.898L38.3355 12.486L39.3115 10.0852C39.49 9.64606 39.0096 9.23082 38.6011 9.47083L36.9481 10.4421L35.2913 11.0373L32.3065 14.1081L29.7557 14.4518L28.4018 16.0222L25.1679 15.8083L25.2701 14.4007C25.3508 13.2865 24.1096 12.5712 23.1862 13.1997L19.6763 15.588L18.2592 14.3701L16.0968 15.6286L11.8227 14.1371L11.9303 12.7458C12.0257 11.5129 10.6958 10.6817 9.6294 11.3076L7.49381 12.561L5.42686 12.1608C4.54915 11.9907 3.76239 12.7295 3.87695 13.6162L4.00238 14.5881L3.29096 17.9349L0.803371 19.4672C0.139497 19.8761 -0.15032 20.69 0.108856 21.4254C0.301319 21.9708 0.557292 23.3359 0.837524 24.7466C1.09063 26.0198 2.85529 26.1602 3.30468 24.9423L4.05569 22.9072L4.72658 22.4467C5.28034 22.0666 6.02467 22.1266 6.5101 22.5906L7.73604 23.7623L9.73722 23.6046L13.3524 24.0818L14.6323 26.931C14.7635 27.2227 15.001 27.4532 15.2965 27.5754L18.0232 28.7031C18.306 28.8199 18.6216 28.8295 18.9108 28.7296L21.5979 27.802L23.1484 29.079L27.0627 29.9111C27.4968 30.0034 27.9325 29.7618 28.0844 29.3446L29.2226 26.2161L31.172 28.0153L33.6864 28.1854L33.0746 30.3207C32.9351 30.8077 33.1276 31.3293 33.5505 31.6086C34.1266 31.989 34.9053 31.7854 35.2213 31.1719L36.8625 27.9863L35.2136 24.4295L32.8431 23.9255L32.9644 21.9837L34.5855 20.8707L35.1574 17.4942L36.5107 20.0409L37.1659 21.2275C37.5617 21.9444 38.4585 22.2122 39.1828 21.8305C39.847 21.481 40.1509 20.6949 39.8952 19.9892L39.8953 19.9891Z" fill="#B40D16"/>
</svg>
