<svg width="16" height="17" viewBox="0 0 16 17" fill="none" xmlns="http://www.w3.org/2000/svg">
<path d="M14.9999 2.8331C14.9999 1.88862 14.2382 1.11164 13.2784 1.11164C12.3339 1.11164 11.557 1.87334 11.557 2.8331C11.557 3.5948 12.0597 4.23462 12.7452 4.46319V7.82989L8.54091 7.82978V4.44785C9.22641 4.21938 9.72916 3.57946 9.72916 2.81776C9.72916 1.87328 8.96746 1.0963 8.0077 1.0963C7.06322 1.0963 6.28623 1.85799 6.28623 2.81776C6.28623 3.57946 6.78895 4.21928 7.47448 4.44785V7.81455L3.25468 7.81444V4.44774C3.94018 4.21928 4.44293 3.57935 4.44293 2.81765C4.44293 1.87318 3.68123 1.09619 2.72146 1.09619C1.77699 1.09619 1 1.85789 1 2.81765C1 3.57935 1.50272 4.21918 2.18825 4.44774V12.2323C1.50275 12.4608 1.01532 13.1006 1.01532 13.8623C1.01532 14.8067 1.77701 15.5837 2.73678 15.5837C3.68126 15.5837 4.45824 14.822 4.45824 13.8623C4.45824 13.1006 3.95552 12.4607 3.26999 12.2322L3.26989 8.88071H7.48969V12.2474C6.80419 12.4759 6.30144 13.1158 6.30144 13.8775C6.30144 14.822 7.06314 15.599 8.02291 15.599C8.96738 15.599 9.74437 14.8373 9.74437 13.8775C9.74437 13.1158 9.24165 12.476 8.55612 12.2474L8.55601 8.88071H13.309C13.5985 8.88071 13.8422 8.63694 13.8422 8.34747V4.44758C14.5126 4.21901 15 3.5945 15 2.83281L14.9999 2.8331Z" fill="#E7E7E7"/>
</svg>
